<svg width="41" height="40" viewBox="0 0 41 40" fill="none" xmlns="http://www.w3.org/2000/svg">
<rect x="0.5" width="40" height="40" rx="8" fill="#E5F1FC"/>
<mask id="mask0_23703_860" style="mask-type:alpha" maskUnits="userSpaceOnUse" x="10" y="10" width="21" height="20">
<rect x="10.5" y="10" width="20" height="20" fill="#D9D9D9"/>
</mask>
<g mask="url(#mask0_23703_860)">
<path d="M19.592 24.3362H16.3334C15.1338 24.3362 14.1112 23.9135 13.2657 23.068C12.4201 22.2225 11.9974 21.2 11.9974 20.0005C11.9974 18.801 12.4201 17.7784 13.2657 16.9326C14.1112 16.0869 15.1338 15.6641 16.3334 15.6641H19.592V17.5599H16.3356C15.6571 17.5599 15.0805 17.7972 14.6056 18.2716C14.1307 18.7461 13.8932 19.3223 13.8932 20.0001C13.8932 20.678 14.1307 21.2541 14.6056 21.7286C15.0805 22.2031 15.6571 22.4403 16.3356 22.4403H19.592V24.3362ZM17.0522 20.8733V19.1269H23.948V20.8733H17.0522ZM21.4082 24.3362V22.4403H24.6646C25.3431 22.4403 25.9197 22.2031 26.3946 21.7286C26.8695 21.2541 27.107 20.678 27.107 20.0001C27.107 19.3223 26.8695 18.7461 26.3946 18.2716C25.9197 17.7972 25.3431 17.5599 24.6646 17.5599H21.4082V15.6641H24.6668C25.8664 15.6641 26.889 16.0868 27.7345 16.9322C28.5801 17.7777 29.0028 18.8002 29.0028 19.9997C29.0028 21.1993 28.5801 22.2219 27.7345 23.0676C26.889 23.9133 25.8664 24.3362 24.6668 24.3362H21.4082Z" fill="#0073E6"/>
</g>
</svg>
