<svg width="23" height="11" viewBox="0 0 23 11" fill="none" xmlns="http://www.w3.org/2000/svg">
<path opacity="0.35" d="M0.996216 2.7246C0.996216 1.6277 1.88063 0.738491 2.97173 0.738491H18.1678C19.2589 0.738491 20.1433 1.6277 20.1433 2.7246V8.2246C20.1433 9.32147 19.2589 10.2107 18.1678 10.2107H2.97173C1.88063 10.2107 0.996216 9.32147 0.996216 8.2246V2.7246Z" stroke="black"/>
<path opacity="0.4" d="M21.504 3.64083V7.3075C22.2377 6.99695 22.7149 6.27454 22.7149 5.47417C22.7149 4.6738 22.2377 3.95138 21.504 3.64083Z" fill="black"/>
<path d="M2.35754 3.12182C2.35754 2.56494 2.80659 2.11349 3.36048 2.11349H17.7664C18.3203 2.11349 18.7693 2.56494 18.7693 3.12182V7.82738C18.7693 8.38427 18.3203 8.83572 17.7664 8.83572H3.36048C2.80659 8.83572 2.35754 8.38427 2.35754 7.82739V3.12182Z" fill="#F7CE45"/>
</svg>
