<svg width="17" height="16" viewBox="0 0 17 16" fill="none" xmlns="http://www.w3.org/2000/svg">
<g clip-path="url(#clip0_0_1110)">
<path d="M8.18063 3.28489L6.29501 5.17051L7.23782 6.11332L9.12343 4.2277C9.90125 3.44988 11.174 3.44988 11.9519 4.2277C12.7297 5.00552 12.7297 6.27831 11.9519 7.05613L10.0662 8.94174L11.0091 9.88455L12.8947 7.99893C14.1957 6.69786 14.1957 4.58597 12.8947 3.28489C11.5936 1.98381 9.4817 1.98381 8.18063 3.28489ZM9.12343 9.88455L7.23782 11.7702C6.46 12.548 5.18721 12.548 4.40939 11.7702C3.63157 10.9924 3.63157 9.71956 4.40939 8.94174L6.29501 7.05613L5.3522 6.11332L3.46658 7.99893C2.1655 9.30001 2.1655 11.4119 3.46658 12.713C4.76766 14.0141 6.87955 14.0141 8.18063 12.713L10.0662 10.8274L9.12343 9.88455ZM5.8236 9.41315L9.59484 5.64191L10.5376 6.58472L6.76641 10.356L5.8236 9.41315Z" fill="#1C4980"/>
</g>
<defs>
<clipPath id="clip0_0_1110">
<rect width="16" height="16" fill="white" transform="translate(0.180359)"/>
</clipPath>
</defs>
</svg>
