<svg width="16" height="16" viewBox="0 0 16 16" fill="none" xmlns="http://www.w3.org/2000/svg">
<g clip-path="url(#clip0_0_1076)">
<path d="M8.00027 3.28489L6.11465 5.17051L7.05746 6.11332L8.94308 4.2277C9.72089 3.44988 10.9937 3.44988 11.7715 4.2277C12.5493 5.00552 12.5493 6.27831 11.7715 7.05613L9.88589 8.94174L10.8287 9.88455L12.7143 7.99893C14.0154 6.69786 14.0154 4.58597 12.7143 3.28489C11.4132 1.98381 9.30134 1.98381 8.00027 3.28489ZM8.94308 9.88455L7.05746 11.7702C6.27964 12.548 5.00685 12.548 4.22903 11.7702C3.45121 10.9924 3.45121 9.71956 4.22903 8.94174L6.11465 7.05613L5.17184 6.11332L3.28622 7.99893C1.98515 9.30001 1.98515 11.4119 3.28622 12.713C4.5873 14.0141 6.69919 14.0141 8.00027 12.713L9.88589 10.8274L8.94308 9.88455ZM5.64324 9.41315L9.41448 5.64191L10.3573 6.58472L6.58605 10.356L5.64324 9.41315Z" fill="#1C4980"/>
</g>
<defs>
<clipPath id="clip0_0_1076">
<rect width="16" height="16" fill="white"/>
</clipPath>
</defs>
</svg>
