<svg width="15" height="12" viewBox="0 0 15 12" fill="none" xmlns="http://www.w3.org/2000/svg">
<path fill-rule="evenodd" clip-rule="evenodd" d="M7.31939 3.06168C9.33968 3.06177 11.2828 3.84226 12.7471 5.24182C12.8574 5.34987 13.0336 5.3485 13.1422 5.23876L14.1962 4.16932C14.2512 4.11365 14.2818 4.03826 14.2814 3.95981C14.2809 3.88136 14.2493 3.80633 14.1937 3.75132C10.3505 0.0484015 4.2875 0.0484015 0.444318 3.75132C0.3887 3.80629 0.357061 3.8813 0.356605 3.95974C0.356058 4.03819 0.386694 4.11362 0.441582 4.16932L1.49595 5.23876C1.60445 5.34868 1.78078 5.35003 1.89102 5.24182C3.3554 3.84216 5.29874 3.06168 7.31939 3.06168ZM7.31939 6.54104C8.42937 6.54098 9.49987 6.9558 10.3227 7.70491C10.434 7.81122 10.6093 7.80891 10.7178 7.69971L11.7706 6.63026C11.8261 6.57417 11.8568 6.49807 11.856 6.419C11.8551 6.33992 11.8229 6.26446 11.7663 6.20951C9.26063 3.86616 5.38025 3.86616 2.87454 6.20951C2.81791 6.26446 2.78564 6.33995 2.78482 6.41906C2.78409 6.49816 2.815 6.57425 2.87052 6.63026L3.92306 7.69971C4.03147 7.80891 4.20681 7.81122 4.31813 7.70491C5.14045 6.95629 6.21004 6.5415 7.31939 6.54104ZM9.42821 8.88204C9.42985 8.96134 9.39885 9.03779 9.34259 9.09334L7.52144 10.9411C7.4681 10.9953 7.39525 11.0259 7.31939 11.0259C7.24344 11.0259 7.17059 10.9953 7.11725 10.9411L5.29582 9.09334C5.23956 9.03775 5.20865 8.96127 5.21029 8.88198C5.21194 8.80268 5.24613 8.72758 5.30466 8.67443C6.46771 7.68545 8.17098 7.68545 9.33402 8.67443C9.39256 8.72763 9.42666 8.80274 9.42821 8.88204Z" fill="black"/>
</svg>
