<svg width="17" height="10" viewBox="0 0 17 10" fill="none" xmlns="http://www.w3.org/2000/svg">
<path fill-rule="evenodd" clip-rule="evenodd" d="M15.4448 0.111097H14.5331C14.0295 0.111097 13.6213 0.521504 13.6213 1.02776V8.97224C13.6213 9.47851 14.0295 9.8889 14.5331 9.8889H15.4448C15.9484 9.8889 16.3566 9.47851 16.3566 8.97224V1.02776C16.3566 0.521504 15.9484 0.111097 15.4448 0.111097ZM10.2781 2.24999H11.1899C11.6935 2.24999 12.1017 2.66039 12.1017 3.16666V8.97224C12.1017 9.47851 11.6935 9.8889 11.1899 9.8889H10.2781C9.77457 9.8889 9.36638 9.47851 9.36638 8.97224V3.16666C9.36638 2.66039 9.77457 2.24999 10.2781 2.24999ZM6.93503 4.38887H6.02326C5.51971 4.38887 5.1115 4.79928 5.1115 5.30554V8.97224C5.1115 9.47851 5.51971 9.8889 6.02326 9.8889H6.93503C7.43858 9.8889 7.84679 9.47851 7.84679 8.97224V5.30554C7.84679 4.79928 7.43858 4.38887 6.93503 4.38887ZM2.68013 6.22221H1.76836C1.26481 6.22221 0.856598 6.63262 0.856598 7.13887V8.97224C0.856598 9.47851 1.26481 9.8889 1.76836 9.8889H2.68013C3.18368 9.8889 3.59189 9.47851 3.59189 8.97224V7.13887C3.59189 6.63262 3.18368 6.22221 2.68013 6.22221Z" fill="black"/>
</svg>
